# xmcd
#
# Track frame offsets: 
#        150
#        17797
#        32100
#        42456
#        59601
#        74434
#        86973
#        97048
#        108885
#        126312
#
# Disc length: 1898 seconds
#
# Revision: 0
# Processed by: cddbd v1.5.2PL0 Copyright (c) Steve Scherf et al.
# Submitted via: ExactAudioCopy v1.0b4
#
DISCID=9207680a
DTITLE=Greg Izor and Marco Pandolfi - Homemade Wine
DYEAR=2017
DGENRE=Blues
TTITLE0=Alabama
TTITLE1=Don't Get Me Wrong
TTITLE2=Come On Mary
TTITLE3=Nothing Can Go Wrong
TTITLE4=Sarah JAne
TTITLE5=Morning Train
TTITLE6=Your Goose Is Cooked
TTITLE7=Keep It All
TTITLE8=Scarred And Torn
TTITLE9=Blue Dawn
EXTD=
EXTT0=
EXTT1=
EXTT2=
EXTT3=
EXTT4=
EXTT5=
EXTT6=
EXTT7=
EXTT8=
EXTT9=
PLAYORDER=
